<svg xmlns="http://www.w3.org/2000/svg" viewBox="0 0 400 400">
  <!-- 餐盘外圈 -->
  <circle cx="200" cy="200" r="180" fill="none" stroke="#eee" stroke-width="4"/>
  
  <!-- 煎蛋 -->
  <g transform="translate(120,140)">
    <circle cx="0" cy="0" r="40" fill="#fff" stroke="#ddd" stroke-width="2"/>
    <circle cx="0" cy="0" r="25" fill="#FFA500"/>
  </g>
  <g transform="translate(280,140)">
    <circle cx="0" cy="0" r="40" fill="#fff" stroke="#ddd" stroke-width="2"/>
    <circle cx="0" cy="0" r="25" fill="#FFA500"/>
  </g>
  
  <!-- 草莓 -->
  <g transform="translate(160,240)">
    <path d="M0,0 C10,-10 20,-10 30,0 C40,10 30,30 15,40 C0,30 -10,10 0,0Z" 
          fill="#FF4444"/>
    <circle cx="5" cy="10" r="2" fill="#fff" opacity="0.5"/>
  </g>
  <g transform="translate(200,240)">
    <path d="M0,0 C10,-10 20,-10 30,0 C40,10 30,30 15,40 C0,30 -10,10 0,0Z" 
          fill="#FF4444"/>
    <circle cx="5" cy="10" r="2" fill="#fff" opacity="0.5"/>
  </g>
  <g transform="translate(240,240)">
    <path d="M0,0 C10,-10 20,-10 30,0 C40,10 30,30 15,40 C0,30 -10,10 0,0Z" 
          fill="#FF4444"/>
    <circle cx="5" cy="10" r="2" fill="#fff" opacity="0.5"/>
  </g>
  
  <!-- 黄瓜 -->
  <path d="M100,280 C150,280 250,280 300,280" 
        stroke="#4CAF50" 
        stroke-width="20" 
        stroke-linecap="round"
        fill="none"/>
  
  <!-- 装饰叶子 -->
  <path d="M280,260 C290,250 300,260 290,270" 
        fill="#4CAF50"/>
</svg> 