<svg xmlns="http://www.w3.org/2000/svg" viewBox="0 0 400 400">
  <!-- 餐盘 - 更大更突出 -->
  <circle cx="200" cy="200" r="190" fill="white" stroke="#e8e8e8" stroke-width="2"/>
  
  <!-- 左边的西兰花 -->
  <g transform="translate(130,150)">
    <circle cx="0" cy="0" r="20" fill="#4CAF50"/>
    <circle cx="-15" cy="-15" r="15" fill="#4CAF50"/>
    <circle cx="15" cy="-15" r="15" fill="#4CAF50"/>
    <circle cx="-10" cy="15" r="15" fill="#4CAF50"/>
    <circle cx="10" cy="15" r="15" fill="#4CAF50"/>
  </g>
  
  <!-- 右边的胡萝卜 -->
  <g transform="translate(270,150)">
    <path d="M-10,-20 L10,-20 L0,30" fill="#FF7043"/>
    <path d="M0,-25 C-10,-35 -5,-45 0,-40 C5,-45 10,-35 0,-25" fill="#4CAF50"/>
  </g>
  
  <!-- 底部的生菜叶 -->
  <g transform="translate(200,250)">
    <path d="M-80,-10 Q0,60 80,-10" 
          stroke="#8BC34A" 
          stroke-width="25" 
          stroke-linecap="round"
          fill="none"/>
    <path d="M-70,-20 Q0,40 70,-20" 
          stroke="#A5D6A7" 
          stroke-width="15" 
          stroke-linecap="round"
          fill="none"/>
  </g>

  <!-- 小番茄 -->
  <g transform="translate(180,220)">
    <g transform="translate(-30,0)">
      <circle cx="0" cy="0" r="12" fill="#F44336"/>
      <path d="M0,-8 C-3,-12 3,-12 0,-8" fill="#4CAF50"/>
    </g>
    <g transform="translate(0,0)">
      <circle cx="0" cy="0" r="12" fill="#F44336"/>
      <path d="M0,-8 C-3,-12 3,-12 0,-8" fill="#4CAF50"/>
    </g>
    <g transform="translate(30,0)">
      <circle cx="0" cy="0" r="12" fill="#F44336"/>
      <path d="M0,-8 C-3,-12 3,-12 0,-8" fill="#4CAF50"/>
    </g>
  </g>
</svg>