<svg xmlns="http://www.w3.org/2000/svg" width="28" height="28"><path fill="#173430" d="M26.74 15.14a10.3 10.3 0 0 0 1.21-5.99c-.5-4.77-4.32-8.6-9.09-9.1-2.1-.2-4.2.19-5.97 1.2-.83.45-1.78.58-2.6.26a6.28 6.28 0 0 0-3.44-.19A7.01 7.01 0 0 0 1.38 6.8c-.19 1.14-.12 2.29.2 3.44l.04.2c.19.82.05 1.64-.36 2.4a10.3 10.3 0 0 0-1.21 6 10.05 10.05 0 0 0 9.09 9.1c.32.06.7.06 1.01.06 1.72 0 3.44-.45 4.96-1.21a3.43 3.43 0 0 1 2.6-.32c1.09.38 2.3.45 3.44.2a7.01 7.01 0 0 0 5.47-5.48c.19-1.15.12-2.3-.2-3.44l-.04-.2a3.44 3.44 0 0 1 .36-2.41ZM9.78 2.94c1.2.46 2.6.3 3.82-.35a8.6 8.6 0 0 1 4.78-1.07l.33.03.25.03a8.78 8.78 0 0 1 7.5 7.73 8.77 8.77 0 0 1-1.03 5.1c-.65 1.2-.81 2.49-.45 3.75l.08.31c.18.82.2 1.64.07 2.47a5.5 5.5 0 0 1-4.29 4.25c-.9.2-1.81.14-2.62-.14a4.95 4.95 0 0 0-3.82.41 9.62 9.62 0 0 1-4.25 1.03h-.37l-.15-.01-.14-.01-.22-.04-.25-.02a8.54 8.54 0 0 1-7.47-7.72 8.79 8.79 0 0 1 1.02-5.12c.65-1.2.81-2.49.45-3.75l-.08-.3a6.32 6.32 0 0 1-.07-2.48A5.5 5.5 0 0 1 7.16 2.8a4.8 4.8 0 0 1 2.62.14Z"/></svg>