<svg xmlns="http://www.w3.org/2000/svg" width="29" height="25"><path fill="#173430" d="M23.73 25H5.26C2.36 25 0 22.02 0 18.35c0-1.37.89-2.49 1.98-2.49h23.07l.12-.01c.55 0 1-.57 1-1.26 0-.69-.45-1.25-1-1.25H3.94c-1.28 0-2.32-1.32-2.32-2.93 0-1.55.96-2.82 2.17-2.92l.14-.02h23.1c.36 0 .65-.37.65-.81 0-2.75-1.77-4.99-3.95-4.99H5.26c-1.22 0-2.36.7-3.1 1.93-.23.36-.65.43-.94.15-.29-.29-.34-.81-.12-1.18C2.1.94 3.63 0 5.26 0h18.47C26.63 0 29 2.99 29 6.66c0 1.37-.88 2.48-1.97 2.48H4.06a.57.57 0 0 1-.12.01c-.55 0-1 .57-1 1.26 0 .69.45 1.25 1 1.25h21.23c1.28 0 2.32 1.32 2.32 2.93 0 1.56-.97 2.83-2.18 2.92a.53.53 0 0 1-.14.02H1.97c-.36 0-.65.37-.65.82 0 2.74 1.77 4.98 3.94 4.98h18.46c1.51 0 2.87-1.07 3.54-2.77.17-.41.56-.58.9-.38.32.2.45.71.29 1.12a6.42 6.42 0 0 1-1.9 2.67A4.5 4.5 0 0 1 23.72 25Z"/></svg>