<svg xmlns="http://www.w3.org/2000/svg" width="29" height="25"><path fill="#173430" d="M28.33 7.16c.37 0 .67.32.67.73 0 2.8-.69 5.55-1.99 7.96-.9 1.64-2.05 3.09-3.42 4.28h2.52c.38 0 .68.33.68.73v.21c0 2.17-1.63 3.93-3.62 3.93H5.82c-2 0-3.62-1.76-3.62-3.93v-.2c0-.41.3-.74.67-.74H5.4a15.53 15.53 0 0 1-3.41-4.28A16.76 16.76 0 0 1 0 7.89c0-.4.3-.73.67-.73h.68c.25-.93.95-1.64 1.83-1.84a2.48 2.48 0 0 1 2.6-2.11 2.44 2.44 0 0 1 2.23-1.59c.2 0 .4.03.59.08A2.36 2.36 0 0 1 10.58.58c.33 0 .66.08.96.22A2.26 2.26 0 0 1 14.5.36c.36-.24.78-.36 1.22-.36.67 0 1.29.3 1.74.8a2.24 2.24 0 0 1 1.37-.18l1.22.65c.13.13.25.27.35.43a2.26 2.26 0 0 1 1.13 0l1.18.7c.2.23.38.5.5.8h.22c1.18 0 2.16.9 2.38 2.11.88.2 1.58.92 1.83 1.85h.68ZM4.43 5.93a.76.76 0 0 1-.2.58.64.64 0 0 1-.53.21H3.6c-.34 0-.64.17-.84.44h23.32a1.05 1.05 0 0 0-.92-.44.66.66 0 0 1-.54-.21.76.76 0 0 1-.19-.58v-.11c0-.65-.48-1.17-1.07-1.17-.15 0-.3.04-.43.1-.2.1-.43.08-.62-.04a.75.75 0 0 1-.33-.57 1.22 1.22 0 0 0-.13-.47l-1.3-.53-.2.1a.64.64 0 0 1-.58.06.7.7 0 0 1-.4-.46l-.02-.04-1.16-.75c-.25.04-.43.16-.55.27a.63.63 0 0 1-.57.16.68.68 0 0 1-.46-.39c-.19-.4-.56-.64-.96-.64-.29 0-.55.12-.76.34a.63.63 0 0 1-.94 0c-.2-.22-.47-.34-.76-.34-.4 0-.77.25-.95.64-.1.2-.27.34-.47.39a.64.64 0 0 1-.57-.16 1 1 0 0 0-.7-.28c-.46 0-.88.32-1.02.8a.72.72 0 0 1-.4.46c-.2.08-.41.06-.6-.06a1 1 0 0 0-.55-.17c-.55 0-1.02.47-1.07 1.07a.74.74 0 0 1-.33.57.63.63 0 0 1-.61.04.96.96 0 0 0-.43-.1c-.6 0-1.08.52-1.08 1.17v.1Zm20.9 15.68a2.33 2.33 0 0 1-2.24 1.95H5.75c-1.09 0-2-.84-2.22-1.95h21.8ZM3.07 15.1a13.9 13.9 0 0 0 4.6 5.04h13.5a13.9 13.9 0 0 0 4.59-5.03 15.19 15.19 0 0 0 1.78-6.5H1.3c.11 2.3.72 4.53 1.8 6.5Z"/></svg>