<svg xmlns="http://www.w3.org/2000/svg" width="35" height="18"><path fill="#173430" d="M16.4 4.01c2 2.5 6.15 3.92 9.86 4.42 6.32.84 7.65 3.93 7.92 5.24.49.25.82.75.82 1.33v1.5c0 .83-.67 1.5-1.49 1.5H1.5A1.5 1.5 0 0 1 0 16.5V15c0-.55.3-1.03.75-1.29V3.44c0-1.24 1-2.25 2.23-2.25h10.76a5.3 5.3 0 0 1-.02-.44.75.75 0 1 1 1.5 0c0 1.2.4 2.24 1.1 3.15l.08.11Zm10.18 6c-.1.04-1.05.61-1.2 3.49h7.2c-.4-1.03-1.74-2.82-6.04-3.51V10h.04ZM2.23 13.49V3.44c0-.42.34-.76.75-.76h10.58c.2 0 .28.07.68.76l.07.1a13.5 13.5 0 0 0 .36.57l.04.07-1.18.71a.76.76 0 0 0-.26 1.03.74.74 0 0 0 1.02.26l1.33-.8c.37.38.78.75 1.21 1.09l-1.02 1.27c-.26.32-.21.8.1 1.06.14.11.3.17.47.17.22 0 .43-.1.58-.28l1.11-1.38c.5.3 1 .56 1.54.8l-.68 1.45a.75.75 0 0 0 .67 1.07c.28 0 .55-.16.67-.43L21 8.67c1.25.46 2.56.8 3.85 1.04-.45.72-.87 1.9-.96 3.78H2.23ZM33.51 15H1.5v1.5H33.5V15Z"/></svg>